<svg width="20" height="15" viewBox="0 0 20 15" fill="none" xmlns="http://www.w3.org/2000/svg">
<path id="Vector" d="M1 8.5H19C19.2652 8.5 19.5196 8.39464 19.7071 8.20711C19.8946 8.01957 20 7.76522 20 7.5C20 7.23478 19.8946 6.98043 19.7071 6.79289C19.5196 6.60536 19.2652 6.5 19 6.5H1C0.734784 6.5 0.48043 6.60536 0.292893 6.79289C0.105357 6.98043 0 7.23478 0 7.5C0 7.76522 0.105357 8.01957 0.292893 8.20711C0.48043 8.39464 0.734784 8.5 1 8.5ZM1 2.5H19C19.2652 2.5 19.5196 2.39464 19.7071 2.20711C19.8946 2.01957 20 1.76522 20 1.5C20 1.23478 19.8946 0.98043 19.7071 0.792893C19.5196 0.605357 19.2652 0.5 19 0.5H1C0.734784 0.5 0.48043 0.605357 0.292893 0.792893C0.105357 0.98043 0 1.23478 0 1.5C0 1.76522 0.105357 2.01957 0.292893 2.20711C0.48043 2.39464 0.734784 2.5 1 2.5ZM1 14.5H19C19.2652 14.5 19.5196 14.3946 19.7071 14.2071C19.8946 14.0196 20 13.7652 20 13.5C20 13.2348 19.8946 12.9804 19.7071 12.7929C19.5196 12.6054 19.2652 12.5 19 12.5H1C0.734784 12.5 0.48043 12.6054 0.292893 12.7929C0.105357 12.9804 0 13.2348 0 13.5C0 13.7652 0.105357 14.0196 0.292893 14.2071C0.48043 14.3946 0.734784 14.5 1 14.5Z" fill="#595BD4"/>
</svg>
